<mxfile host="app.diagrams.net" agent="Mozilla/5.0 (Windows NT 10.0; Win64; x64) AppleWebKit/537.36 (KHTML, like Gecko) Chrome/130.0.0.0 Safari/537.36" version="24.8.6">
  <diagram name="Page-1" id="9361dd3d-8414-5efd-6122-117bd74ce7a7">
    <mxGraphModel dx="2035" dy="1086" grid="1" gridSize="10" guides="1" tooltips="1" connect="1" arrows="1" fold="1" page="0" pageScale="1.5" pageWidth="826" pageHeight="1169" background="none" math="0" shadow="0">
      <root>
        <mxCell id="0" />
        <mxCell id="1" parent="0" />
        <mxCell id="raCDrMh42CsUO1TfeVZc-3" value="" style="rounded=1;whiteSpace=wrap;html=1;" vertex="1" parent="1">
          <mxGeometry x="490" y="280" width="220" height="250" as="geometry" />
        </mxCell>
        <mxCell id="raCDrMh42CsUO1TfeVZc-4" value="" style="rounded=1;whiteSpace=wrap;html=1;" vertex="1" parent="1">
          <mxGeometry x="550" y="30" width="190" height="150" as="geometry" />
        </mxCell>
        <mxCell id="raCDrMh42CsUO1TfeVZc-8" value="Execute Mission" style="text;strokeColor=none;align=center;fillColor=none;html=1;verticalAlign=middle;whiteSpace=wrap;rounded=0;" vertex="1" parent="1">
          <mxGeometry x="535" y="305" width="140" height="30" as="geometry" />
        </mxCell>
        <mxCell id="raCDrMh42CsUO1TfeVZc-9" value="Result analysis and visualization" style="text;strokeColor=none;align=center;fillColor=none;html=1;verticalAlign=middle;whiteSpace=wrap;rounded=0;" vertex="1" parent="1">
          <mxGeometry x="575" y="37.5" width="140" height="30" as="geometry" />
        </mxCell>
        <mxCell id="raCDrMh42CsUO1TfeVZc-14" value="&lt;font style=&quot;font-size: 9px;&quot;&gt;&lt;strong style=&quot;&quot; data-immersive-translate-walked=&quot;97188760-1b95-4faa-a504-3947132e1d31&quot;&gt;1. Dynamic Modeling&lt;/strong&gt;: Simulating orbital dynamics by calculating forces such as gravitational fields and solar radiation pressure.&lt;/font&gt;&lt;div style=&quot;font-size: 9px;&quot;&gt;&lt;font style=&quot;font-size: 9px;&quot;&gt;&lt;b&gt;&lt;font style=&quot;font-size: 9px;&quot;&gt;2.&amp;nbsp;&lt;/font&gt;&lt;span style=&quot;background-color: initial;&quot; data-immersive-translate-walked=&quot;97188760-1b95-4faa-a504-3947132e1d31&quot;&gt;Orbit Design and Optimization&lt;/span&gt;&lt;/b&gt;&lt;span style=&quot;background-color: initial;&quot;&gt;: Solving and optimizing the Lambert problem to support orbit transfer design.&lt;/span&gt;&lt;/font&gt;&lt;/div&gt;&lt;div style=&quot;font-size: 9px;&quot;&gt;&lt;font style=&quot;font-size: 9px;&quot;&gt;3.&amp;nbsp;&lt;b&gt;construct a mission, divided into three phases&lt;/b&gt;:&lt;/font&gt;&lt;/div&gt;&lt;div style=&quot;font-size: 9px;&quot;&gt;&lt;font style=&quot;font-size: 9px;&quot;&gt;&amp;nbsp; -&lt;strong style=&quot;background-color: initial;&quot; data-immersive-translate-walked=&quot;c31a89dd-fdb8-4741-b4f0-9a972a691e82&quot;&gt;Initial propagation&lt;/strong&gt;&lt;span style=&quot;background-color: initial;&quot;&gt; ensures orbital stability and evaluates natural trajectory evolution.&lt;/span&gt;&lt;/font&gt;&lt;/div&gt;&lt;div style=&quot;font-size: 9px;&quot;&gt;&lt;font style=&quot;font-size: 9px;&quot;&gt;&lt;span style=&quot;background-color: initial;&quot;&gt;&amp;nbsp;-&lt;/span&gt;&lt;strong style=&quot;background-color: initial;&quot; data-immersive-translate-walked=&quot;c31a89dd-fdb8-4741-b4f0-9a972a691e82&quot;&gt;Lambert maneuver&lt;/strong&gt;&lt;span style=&quot;background-color: initial;&quot;&gt; calculates and executes a precise transfer to reach the desired Elliptical Lunar Frozen Orbit (ELFO).&lt;/span&gt;&lt;/font&gt;&lt;/div&gt;&lt;div style=&quot;font-size: 9px;&quot;&gt;&lt;font style=&quot;font-size: 9px;&quot;&gt;&lt;strong style=&quot;&quot; data-immersive-translate-walked=&quot;c31a89dd-fdb8-4741-b4f0-9a972a691e82&quot;&gt;&amp;nbsp;-Delta-V propagation&lt;/strong&gt; ensures velocity matching with ELFO for orbit insertion.&lt;/font&gt;&lt;span style=&quot;background-color: initial; font-size: 12px;&quot;&gt;&lt;/span&gt;&lt;/div&gt;" style="text;whiteSpace=wrap;html=1;" vertex="1" parent="1">
          <mxGeometry x="505" y="337.5" width="200" height="192.5" as="geometry" />
        </mxCell>
        <mxCell id="raCDrMh42CsUO1TfeVZc-32" value="&lt;p style=&quot;margin:0px;margin-top:4px;text-align:center;&quot;&gt;&lt;span style=&quot;background-color: initial;&quot;&gt;SPICE kernel file&lt;/span&gt;&lt;/p&gt;&lt;hr size=&quot;1&quot; style=&quot;border-style:solid;&quot;&gt;&lt;div style=&quot;height:2px;&quot;&gt;&lt;/div&gt;" style="verticalAlign=top;align=left;overflow=fill;html=1;whiteSpace=wrap;" vertex="1" parent="1">
          <mxGeometry x="-520" y="120" width="200" height="160" as="geometry" />
        </mxCell>
        <UserObject label="de430.bsp&#xa;pck00010.tpc&#xa;naif0012.tls&#xa;moon_pa_de421_1900-2050.bpc&#xa;moon_080317.tf&#xa;moon_assoc_me.tf&#xa;earth_1962_240827_2124_combined.bpc" link="de430.bsp&#xa;pck00010.tpc&#xa;naif0012.tls&#xa;moon_pa_de421_1900-2050.bpc&#xa;moon_080317.tf&#xa;moon_assoc_me.tf&#xa;earth_1962_240827_2124_combined.bpc" id="raCDrMh42CsUO1TfeVZc-12">
          <mxCell style="text;whiteSpace=wrap;fontSize=9;" vertex="1" parent="1">
            <mxGeometry x="-505" y="170" width="170" height="120" as="geometry" />
          </mxCell>
        </UserObject>
        <mxCell id="raCDrMh42CsUO1TfeVZc-36" value="&lt;p style=&quot;margin:0px;margin-top:4px;text-align:center;&quot;&gt;&lt;span style=&quot;background-color: initial;&quot;&gt;Initialization of Orbit state data&lt;/span&gt;&lt;/p&gt;&lt;hr size=&quot;1&quot; style=&quot;border-style:solid;&quot;&gt;&lt;div style=&quot;height:2px;&quot;&gt;&lt;/div&gt;" style="verticalAlign=top;align=left;overflow=fill;html=1;whiteSpace=wrap;" vertex="1" parent="1">
          <mxGeometry x="-265" y="120" width="200" height="160" as="geometry" />
        </mxCell>
        <mxCell id="raCDrMh42CsUO1TfeVZc-18" value="&lt;font style=&quot;font-size: 9px;&quot;&gt;load gravitational Models (loadModel)&lt;/font&gt;" style="html=1;whiteSpace=wrap;align=left;" vertex="1" parent="1">
          <mxGeometry x="-230" y="150" width="110" height="30" as="geometry" />
        </mxCell>
        <mxCell id="raCDrMh42CsUO1TfeVZc-20" value="&lt;font style=&quot;font-size: 9px;&quot;&gt;Defines a mission sequence (loadSequential)&lt;/font&gt;" style="html=1;whiteSpace=wrap;align=left;" vertex="1" parent="1">
          <mxGeometry x="-230" y="200" width="130" height="30" as="geometry" />
        </mxCell>
        <mxCell id="raCDrMh42CsUO1TfeVZc-38" value="&lt;p style=&quot;margin:0px;margin-top:4px;text-align:center;&quot;&gt;&lt;span style=&quot;background-color: initial;&quot;&gt;Execute Mission&lt;/span&gt;&lt;/p&gt;&lt;hr size=&quot;1&quot; style=&quot;border-style:solid;&quot;&gt;&lt;div style=&quot;height:2px;&quot;&gt;&lt;/div&gt;" style="verticalAlign=top;align=left;overflow=fill;html=1;whiteSpace=wrap;" vertex="1" parent="1">
          <mxGeometry x="-540" y="430" width="470" height="550" as="geometry" />
        </mxCell>
        <mxCell id="raCDrMh42CsUO1TfeVZc-43" value="&lt;font style=&quot;font-size: 9px;&quot;&gt;Free Propagation&lt;/font&gt;" style="html=1;whiteSpace=wrap;align=center;" vertex="1" parent="1">
          <mxGeometry x="-30" y="30" width="90" height="20" as="geometry" />
        </mxCell>
        <mxCell id="raCDrMh42CsUO1TfeVZc-44" value="&lt;font style=&quot;font-size: 9px;&quot;&gt;Lambert Maneuver&lt;/font&gt;" style="html=1;whiteSpace=wrap;align=center;" vertex="1" parent="1">
          <mxGeometry x="-30" y="80" width="90" height="20" as="geometry" />
        </mxCell>
        <mxCell id="raCDrMh42CsUO1TfeVZc-45" value="&lt;font style=&quot;font-size: 9px;&quot;&gt;Delta-V Propagation&lt;/font&gt;" style="html=1;whiteSpace=wrap;align=center;" vertex="1" parent="1">
          <mxGeometry x="-30" y="130" width="90" height="20" as="geometry" />
        </mxCell>
        <mxCell id="raCDrMh42CsUO1TfeVZc-59" value="&lt;font style=&quot;font-size: 9px;&quot;&gt;Calculates spacecraft acceleration caused by Earth&#39;s albedo. (accelalb)&lt;/font&gt;" style="html=1;whiteSpace=wrap;align=left;" vertex="1" parent="1">
          <mxGeometry x="385" y="-30" width="120" height="50" as="geometry" />
        </mxCell>
        <mxCell id="raCDrMh42CsUO1TfeVZc-60" value="&lt;font style=&quot;font-size: 9px;&quot;&gt;Calculates spacecraft acceleration due to gravitational effects of point masses. (accelpntmasses)&lt;/font&gt;" style="html=1;whiteSpace=wrap;align=left;" vertex="1" parent="1">
          <mxGeometry x="385" y="120" width="120" height="65" as="geometry" />
        </mxCell>
        <mxCell id="raCDrMh42CsUO1TfeVZc-61" value="&lt;font style=&quot;font-size: 9px;&quot;&gt;Computes gravitational acceleration using spherical harmonics. (accelharmonic&lt;/font&gt;&lt;span style=&quot;font-size: 9px; background-color: initial;&quot;&gt;)&lt;/span&gt;" style="html=1;whiteSpace=wrap;align=left;" vertex="1" parent="1">
          <mxGeometry x="385" y="45" width="120" height="50" as="geometry" />
        </mxCell>
        <mxCell id="raCDrMh42CsUO1TfeVZc-63" value="&lt;font style=&quot;font-size: 9px;&quot;&gt;Calculates spacecraft acceleration due to solar radiation pressure. (accelsrp)&lt;/font&gt;" style="html=1;whiteSpace=wrap;align=left;" vertex="1" parent="1">
          <mxGeometry x="385" y="197.5" width="120" height="57.5" as="geometry" />
        </mxCell>
        <mxCell id="raCDrMh42CsUO1TfeVZc-65" value="&lt;font style=&quot;font-size: 9px;&quot;&gt;Computes the derivatives of a spacecraft&#39;s state vector,(Prophpop)&lt;/font&gt;" style="html=1;whiteSpace=wrap;align=left;" vertex="1" parent="1">
          <mxGeometry x="195" y="-12.5" width="120" height="47.5" as="geometry" />
        </mxCell>
        <mxCell id="raCDrMh42CsUO1TfeVZc-66" value="&lt;font style=&quot;font-size: 9px;&quot;&gt;Optimizes initial state for periodicity in the Earth-Moon rotating frame. (TBOptim)&lt;/font&gt;" style="html=1;whiteSpace=wrap;align=left;" vertex="1" parent="1">
          <mxGeometry x="195" y="231.25" width="120" height="47.5" as="geometry" />
        </mxCell>
        <mxCell id="raCDrMh42CsUO1TfeVZc-68" value="&lt;span style=&quot;text-align: left;&quot;&gt;&lt;font style=&quot;font-size: 9px;&quot;&gt;Three-Body Problem Optimization&lt;/font&gt;&lt;/span&gt;" style="html=1;whiteSpace=wrap;align=center;" vertex="1" parent="1">
          <mxGeometry x="-30" y="172.5" width="90" height="30" as="geometry" />
        </mxCell>
        <mxCell id="raCDrMh42CsUO1TfeVZc-72" value="&lt;span style=&quot;text-align: left;&quot;&gt;&lt;font style=&quot;font-size: 9px;&quot;&gt;Optimized Lambert Transfer&lt;/font&gt;&lt;/span&gt;" style="html=1;whiteSpace=wrap;align=center;" vertex="1" parent="1">
          <mxGeometry x="-30" y="230" width="90" height="30" as="geometry" />
        </mxCell>
        <mxCell id="raCDrMh42CsUO1TfeVZc-74" value="&lt;font style=&quot;font-size: 9px;&quot;&gt;Solves the Lambert problem to compute transfer velocities and extremal distances for orbital transfers. (Lambert)&lt;/font&gt;" style="html=1;whiteSpace=wrap;align=left;" vertex="1" parent="1">
          <mxGeometry x="195" y="150" width="120" height="61.88" as="geometry" />
        </mxCell>
        <mxCell id="raCDrMh42CsUO1TfeVZc-77" value="&lt;font style=&quot;font-size: 9px;&quot;&gt;Numerically integrates the spacecraft&#39;s state using the DOP853 method for precise orbital propagation. (solve_vip)&lt;/font&gt;" style="html=1;whiteSpace=wrap;align=left;" vertex="1" parent="1">
          <mxGeometry x="195" y="55" width="120" height="70" as="geometry" />
        </mxCell>
        <mxCell id="raCDrMh42CsUO1TfeVZc-80" value="&lt;font style=&quot;font-size: 9px;&quot;&gt;loading models, initial states (loadState)&lt;/font&gt;" style="html=1;whiteSpace=wrap;align=left;" vertex="1" parent="1">
          <mxGeometry x="-230" y="240" width="130" height="30" as="geometry" />
        </mxCell>
        <mxCell id="raCDrMh42CsUO1TfeVZc-82" value="" style="endArrow=block;endFill=1;html=1;align=left;verticalAlign=top;rounded=0;exitX=0;exitY=0.5;exitDx=0;exitDy=0;entryX=1;entryY=0.25;entryDx=0;entryDy=0;" edge="1" parent="1">
          <mxGeometry x="-1" relative="1" as="geometry">
            <mxPoint x="385" as="sourcePoint" />
            <mxPoint x="315" y="4.375" as="targetPoint" />
            <mxPoint as="offset" />
          </mxGeometry>
        </mxCell>
        <mxCell id="raCDrMh42CsUO1TfeVZc-84" value="" style="endArrow=block;endFill=1;html=1;align=left;verticalAlign=top;rounded=0;exitX=0;exitY=0.5;exitDx=0;exitDy=0;entryX=1;entryY=0.5;entryDx=0;entryDy=0;" edge="1" parent="1">
          <mxGeometry x="-1" relative="1" as="geometry">
            <mxPoint x="385" y="69.38" as="sourcePoint" />
            <mxPoint x="315" y="10.629999999999999" as="targetPoint" />
            <mxPoint as="offset" />
          </mxGeometry>
        </mxCell>
        <mxCell id="raCDrMh42CsUO1TfeVZc-86" value="" style="endArrow=block;endFill=1;html=1;align=left;verticalAlign=top;rounded=0;exitX=0;exitY=0.5;exitDx=0;exitDy=0;entryX=1;entryY=0.75;entryDx=0;entryDy=0;" edge="1" parent="1">
          <mxGeometry x="-1" relative="1" as="geometry">
            <mxPoint x="385" y="149.38" as="sourcePoint" />
            <mxPoint x="315" y="20.00500000000001" as="targetPoint" />
            <mxPoint as="offset" />
          </mxGeometry>
        </mxCell>
        <mxCell id="raCDrMh42CsUO1TfeVZc-88" value="" style="endArrow=block;endFill=1;html=1;align=left;verticalAlign=top;rounded=0;exitX=0;exitY=0.5;exitDx=0;exitDy=0;entryX=1;entryY=1;entryDx=0;entryDy=0;" edge="1" parent="1">
          <mxGeometry x="-1" relative="1" as="geometry">
            <mxPoint x="385" y="226.25" as="sourcePoint" />
            <mxPoint x="315" y="35" as="targetPoint" />
            <mxPoint as="offset" />
          </mxGeometry>
        </mxCell>
        <mxCell id="raCDrMh42CsUO1TfeVZc-90" value="" style="endArrow=block;endFill=1;html=1;align=left;verticalAlign=top;rounded=0;exitX=0;exitY=0.5;exitDx=0;exitDy=0;" edge="1" parent="1" source="raCDrMh42CsUO1TfeVZc-65">
          <mxGeometry x="-1" relative="1" as="geometry">
            <mxPoint x="175" y="172.5" as="sourcePoint" />
            <mxPoint x="120" y="40" as="targetPoint" />
          </mxGeometry>
        </mxCell>
        <mxCell id="raCDrMh42CsUO1TfeVZc-93" value="" style="html=1;verticalAlign=bottom;startArrow=oval;startFill=1;endArrow=block;startSize=8;curved=0;rounded=0;entryX=1;entryY=0.5;entryDx=0;entryDy=0;" edge="1" parent="1" target="raCDrMh42CsUO1TfeVZc-43">
          <mxGeometry width="60" relative="1" as="geometry">
            <mxPoint x="120" y="40" as="sourcePoint" />
            <mxPoint x="-20" y="20" as="targetPoint" />
          </mxGeometry>
        </mxCell>
        <mxCell id="raCDrMh42CsUO1TfeVZc-94" value="" style="endArrow=block;endFill=1;html=1;align=left;verticalAlign=top;rounded=0;exitX=0;exitY=0.5;exitDx=0;exitDy=0;" edge="1" parent="1" source="raCDrMh42CsUO1TfeVZc-77">
          <mxGeometry x="-1" relative="1" as="geometry">
            <mxPoint x="175" y="138" as="sourcePoint" />
            <mxPoint x="120" y="40" as="targetPoint" />
          </mxGeometry>
        </mxCell>
        <mxCell id="raCDrMh42CsUO1TfeVZc-95" value="" style="endArrow=block;endFill=1;html=1;align=left;verticalAlign=top;rounded=0;exitX=0;exitY=0.5;exitDx=0;exitDy=0;entryX=1;entryY=0.75;entryDx=0;entryDy=0;" edge="1" parent="1" source="raCDrMh42CsUO1TfeVZc-74" target="raCDrMh42CsUO1TfeVZc-44">
          <mxGeometry x="-1" relative="1" as="geometry">
            <mxPoint x="165" y="185" as="sourcePoint" />
            <mxPoint x="90" y="135" as="targetPoint" />
          </mxGeometry>
        </mxCell>
        <mxCell id="raCDrMh42CsUO1TfeVZc-97" value="" style="html=1;verticalAlign=bottom;startArrow=oval;startFill=1;endArrow=block;startSize=8;curved=0;rounded=0;entryX=1;entryY=0.25;entryDx=0;entryDy=0;" edge="1" parent="1" target="raCDrMh42CsUO1TfeVZc-44">
          <mxGeometry width="60" relative="1" as="geometry">
            <mxPoint x="120" y="40" as="sourcePoint" />
            <mxPoint x="70" y="95" as="targetPoint" />
          </mxGeometry>
        </mxCell>
        <mxCell id="raCDrMh42CsUO1TfeVZc-98" value="" style="html=1;verticalAlign=bottom;startArrow=oval;startFill=1;endArrow=block;startSize=8;curved=0;rounded=0;entryX=1;entryY=0.25;entryDx=0;entryDy=0;" edge="1" parent="1" target="raCDrMh42CsUO1TfeVZc-68">
          <mxGeometry width="60" relative="1" as="geometry">
            <mxPoint x="120" y="40" as="sourcePoint" />
            <mxPoint x="70" y="140" as="targetPoint" />
          </mxGeometry>
        </mxCell>
        <mxCell id="raCDrMh42CsUO1TfeVZc-101" value="" style="endArrow=block;endFill=1;html=1;align=left;verticalAlign=top;rounded=0;exitX=0;exitY=0.5;exitDx=0;exitDy=0;entryX=1;entryY=0.5;entryDx=0;entryDy=0;" edge="1" parent="1" source="raCDrMh42CsUO1TfeVZc-66" target="raCDrMh42CsUO1TfeVZc-68">
          <mxGeometry x="-1" relative="1" as="geometry">
            <mxPoint x="185" y="366" as="sourcePoint" />
            <mxPoint x="50" y="280" as="targetPoint" />
          </mxGeometry>
        </mxCell>
        <mxCell id="raCDrMh42CsUO1TfeVZc-102" value="" style="endArrow=block;endFill=1;html=1;align=left;verticalAlign=top;rounded=0;" edge="1" parent="1">
          <mxGeometry x="-1" relative="1" as="geometry">
            <mxPoint x="120" y="40" as="sourcePoint" />
            <mxPoint x="60" y="240" as="targetPoint" />
          </mxGeometry>
        </mxCell>
      </root>
    </mxGraphModel>
  </diagram>
</mxfile>
